# xmcd CD database file
# Copyright (C) 1993-1998 Ti Kan
#
# Track frame offsets:
#	150
#	12787
#	28197
#	40290
#	50927
#	67695
#	80475
#	92605
#	105640
#	120720
#	133712
#	147072
#	158812
#	179202
#	191967
#	213307
#	227275
#	245405
#	258655
#	274730
#	292450
#	305895
#
# Disc length: 4303 seconds
#
# Revision: 2
# Processed by: cddbd v1.4b41PL1 Copyright (c) Steve Scherf et al.
# Submitted via: CDValet v3.31 - Copyright (c) 1997 Greg Leichner
#
DISCID=4f10cd16
DTITLE=Conway Twitty - The Conway Twitty Collection Disc 3
DYEAR=1900
DGENRE=
TTITLE0=I've Already Loved You In My Mind
TTITLE1=The Grandest Lady Of Them All
TTITLE2=Your Love Had Taken Me That High
TTITLE3=Boogie Grass Band
TTITLE4=Don't Take It Away
TTITLE5=I May Never Get To Heaven
TTITLE6=You Know Just What I'd Do (w/Loretta Lynn)
TTITLE7=Happy Birthday Darlin'
TTITLE8=I'd Love To Lay You Down
TTITLE9=It's Ttue Love (w/Loretta Lynn)
TTITLE10=A Bridge That Just Won't Burn
TTITLE11=Lovin' What Your Lovin' Does To Me (w/Loretta Lynn)
TTITLE12=Rest Your Love On Me
TTITLE13=Tight Fittin' Jeans
TTITLE14=Red Neckin' Love Makin' Night
TTITLE15=We Had It All
TTITLE16=The Clown
TTITLE17=Slow Hand
TTITLE18=The Rose
TTITLE19=Somebody's Needin' Somebody
TTITLE20=I Don't Know A Thing About Love
TTITLE21=Julia
EXTD=
EXTT0=
EXTT1=
EXTT2=
EXTT3=
EXTT4=
EXTT5=
EXTT6=
EXTT7=
EXTT8=
EXTT9=
EXTT10=
EXTT11=
EXTT12=
EXTT13=
EXTT14=
EXTT15=
EXTT16=
EXTT17=
EXTT18=
EXTT19=
EXTT20=
EXTT21=
PLAYORDER=
